<mxfile host="app.diagrams.net" modified="2021-08-16T17:26:59.998Z" agent="5.0 (Windows NT 10.0; Win64; x64) AppleWebKit/537.36 (KHTML, like Gecko) Chrome/92.0.4515.131 Safari/537.36" etag="397br7KpxZ4K-MIJjpvN" version="14.9.6" type="github">
  <diagram id="bT78htS52IDLtBRhpGCw" name="Page-1">
    <mxGraphModel dx="1038" dy="585" grid="1" gridSize="10" guides="1" tooltips="1" connect="1" arrows="1" fold="1" page="1" pageScale="1" pageWidth="850" pageHeight="1100" math="0" shadow="0">
      <root>
        <mxCell id="0" />
        <mxCell id="1" parent="0" />
        <mxCell id="2NqPnYfA7niIIVwYe4EO-3" value="" style="edgeStyle=orthogonalEdgeStyle;rounded=0;orthogonalLoop=1;jettySize=auto;html=1;" edge="1" parent="1" source="2NqPnYfA7niIIVwYe4EO-1" target="2NqPnYfA7niIIVwYe4EO-2">
          <mxGeometry relative="1" as="geometry" />
        </mxCell>
        <mxCell id="2NqPnYfA7niIIVwYe4EO-1" value="Add Environment &amp;amp; Fences" style="rounded=1;whiteSpace=wrap;html=1;" vertex="1" parent="1">
          <mxGeometry x="360" y="270" width="120" height="60" as="geometry" />
        </mxCell>
        <mxCell id="2NqPnYfA7niIIVwYe4EO-5" value="" style="edgeStyle=orthogonalEdgeStyle;rounded=0;orthogonalLoop=1;jettySize=auto;html=1;" edge="1" parent="1" source="2NqPnYfA7niIIVwYe4EO-2" target="2NqPnYfA7niIIVwYe4EO-4">
          <mxGeometry relative="1" as="geometry" />
        </mxCell>
        <mxCell id="2NqPnYfA7niIIVwYe4EO-2" value="Correct Player Join/Leave and Destroy Bullet Object on Photon Network" style="whiteSpace=wrap;html=1;rounded=1;" vertex="1" parent="1">
          <mxGeometry x="360" y="410" width="120" height="60" as="geometry" />
        </mxCell>
        <mxCell id="2NqPnYfA7niIIVwYe4EO-7" value="" style="edgeStyle=orthogonalEdgeStyle;rounded=0;orthogonalLoop=1;jettySize=auto;html=1;" edge="1" parent="1" source="2NqPnYfA7niIIVwYe4EO-4" target="2NqPnYfA7niIIVwYe4EO-6">
          <mxGeometry relative="1" as="geometry" />
        </mxCell>
        <mxCell id="2NqPnYfA7niIIVwYe4EO-4" value="Add Shooting Mechanics &amp;amp; Collision Force" style="whiteSpace=wrap;html=1;rounded=1;" vertex="1" parent="1">
          <mxGeometry x="560" y="410" width="120" height="60" as="geometry" />
        </mxCell>
        <mxCell id="2NqPnYfA7niIIVwYe4EO-9" value="" style="edgeStyle=orthogonalEdgeStyle;rounded=0;orthogonalLoop=1;jettySize=auto;html=1;" edge="1" parent="1" source="2NqPnYfA7niIIVwYe4EO-6" target="2NqPnYfA7niIIVwYe4EO-8">
          <mxGeometry relative="1" as="geometry" />
        </mxCell>
        <mxCell id="2NqPnYfA7niIIVwYe4EO-15" value="" style="edgeStyle=orthogonalEdgeStyle;rounded=0;orthogonalLoop=1;jettySize=auto;html=1;" edge="1" parent="1" source="2NqPnYfA7niIIVwYe4EO-6" target="2NqPnYfA7niIIVwYe4EO-14">
          <mxGeometry relative="1" as="geometry" />
        </mxCell>
        <mxCell id="2NqPnYfA7niIIVwYe4EO-6" value="Respawning, Death &amp;amp; Score" style="whiteSpace=wrap;html=1;rounded=1;" vertex="1" parent="1">
          <mxGeometry x="760" y="410" width="120" height="60" as="geometry" />
        </mxCell>
        <mxCell id="2NqPnYfA7niIIVwYe4EO-11" value="" style="edgeStyle=orthogonalEdgeStyle;rounded=0;orthogonalLoop=1;jettySize=auto;html=1;" edge="1" parent="1" source="2NqPnYfA7niIIVwYe4EO-8" target="2NqPnYfA7niIIVwYe4EO-10">
          <mxGeometry relative="1" as="geometry" />
        </mxCell>
        <mxCell id="2NqPnYfA7niIIVwYe4EO-8" value="Add FX" style="whiteSpace=wrap;html=1;rounded=1;" vertex="1" parent="1">
          <mxGeometry x="760" y="550" width="120" height="60" as="geometry" />
        </mxCell>
        <mxCell id="2NqPnYfA7niIIVwYe4EO-13" value="" style="edgeStyle=orthogonalEdgeStyle;rounded=0;orthogonalLoop=1;jettySize=auto;html=1;" edge="1" parent="1" source="2NqPnYfA7niIIVwYe4EO-10" target="2NqPnYfA7niIIVwYe4EO-12">
          <mxGeometry relative="1" as="geometry" />
        </mxCell>
        <mxCell id="2NqPnYfA7niIIVwYe4EO-10" value="Polish Menu System &amp;amp; Add Pause Menu" style="whiteSpace=wrap;html=1;rounded=1;" vertex="1" parent="1">
          <mxGeometry x="760" y="690" width="120" height="60" as="geometry" />
        </mxCell>
        <mxCell id="2NqPnYfA7niIIVwYe4EO-12" value="Recreate Room Listing &amp;amp; Add Player Listing" style="whiteSpace=wrap;html=1;rounded=1;" vertex="1" parent="1">
          <mxGeometry x="560" y="690" width="120" height="60" as="geometry" />
        </mxCell>
        <mxCell id="2NqPnYfA7niIIVwYe4EO-14" value="Add Usernames and RPCs for color etc" style="whiteSpace=wrap;html=1;rounded=1;" vertex="1" parent="1">
          <mxGeometry x="960" y="410" width="120" height="60" as="geometry" />
        </mxCell>
      </root>
    </mxGraphModel>
  </diagram>
</mxfile>
